<mxfile host="app.diagrams.net" modified="2023-11-24T15:32:42.275Z" agent="Mozilla/5.0 (X11; Linux x86_64; rv:109.0) Gecko/20100101 Firefox/116.0" etag="lOt-_TVHlJgw0lb6v-0f" version="22.1.3" type="google">
  <diagram name="Page-1" id="sATRjq1h523PF7i4RIu9">
    <mxGraphModel grid="1" page="1" gridSize="10" guides="1" tooltips="1" connect="1" arrows="1" fold="1" pageScale="1" pageWidth="850" pageHeight="1100" math="0" shadow="0">
      <root>
        <mxCell id="0" />
        <mxCell id="1" parent="0" />
        <mxCell id="DcH7xlDTEvAQclnFNCwV-2" value="Actor" style="shape=umlActor;verticalLabelPosition=bottom;verticalAlign=top;html=1;outlineConnect=0;" vertex="1" parent="1">
          <mxGeometry x="390" width="30" height="60" as="geometry" />
        </mxCell>
        <mxCell id="DcH7xlDTEvAQclnFNCwV-3" value="&lt;font style=&quot;font-size: 15px;&quot;&gt;&lt;b&gt;Capital management system&lt;br&gt;&amp;nbsp; &lt;/b&gt;&lt;/font&gt;&lt;font size=&quot;1&quot;&gt;&lt;b&gt;سیستم مدیریت سرمایه&lt;/b&gt;&lt;font&gt;&lt;b&gt;&lt;br&gt;&lt;/b&gt;&lt;/font&gt;&lt;/font&gt;" style="rounded=1;whiteSpace=wrap;html=1;fillColor=#dae8fc;strokeColor=#6c8ebf;" vertex="1" parent="1">
          <mxGeometry x="330" y="200" width="180" height="60" as="geometry" />
        </mxCell>
        <mxCell id="DcH7xlDTEvAQclnFNCwV-4" value="&lt;font style=&quot;font-size: 14px;&quot;&gt;&lt;b&gt;OTP code sender&lt;br&gt;service&lt;/b&gt;&lt;/font&gt;" style="rounded=1;whiteSpace=wrap;html=1;fillColor=#f5f5f5;fontColor=#333333;strokeColor=#666666;" vertex="1" parent="1">
          <mxGeometry x="630" y="200" width="120" height="60" as="geometry" />
        </mxCell>
        <mxCell id="DcH7xlDTEvAQclnFNCwV-5" value="&lt;b&gt;&lt;font style=&quot;font-size: 14px;&quot;&gt;‌Burce&lt;/font&gt;&lt;/b&gt;" style="rounded=1;whiteSpace=wrap;html=1;fillColor=#f5f5f5;strokeColor=#666666;fontColor=#333333;" vertex="1" parent="1">
          <mxGeometry x="360" y="400" width="120" height="60" as="geometry" />
        </mxCell>
        <mxCell id="DcH7xlDTEvAQclnFNCwV-6" value="&lt;b style=&quot;font-size: 15px;&quot;&gt;Employment &lt;br&gt;websites&lt;/b&gt;" style="rounded=1;whiteSpace=wrap;html=1;fillColor=#f5f5f5;fontColor=#333333;strokeColor=#666666;" vertex="1" parent="1">
          <mxGeometry y="180" width="170" height="80" as="geometry" />
        </mxCell>
        <mxCell id="DcH7xlDTEvAQclnFNCwV-8" value="" style="endArrow=classic;html=1;rounded=0;dashed=1;" edge="1" parent="1">
          <mxGeometry width="50" height="50" relative="1" as="geometry">
            <mxPoint x="390" y="100" as="sourcePoint" />
            <mxPoint x="389.5" y="180" as="targetPoint" />
          </mxGeometry>
        </mxCell>
        <mxCell id="DcH7xlDTEvAQclnFNCwV-11" value="" style="endArrow=classic;html=1;rounded=0;dashed=1;" edge="1" parent="1">
          <mxGeometry width="50" height="50" relative="1" as="geometry">
            <mxPoint x="520" y="230" as="sourcePoint" />
            <mxPoint x="620" y="230" as="targetPoint" />
            <Array as="points">
              <mxPoint x="560" y="229.5" />
              <mxPoint x="570" y="229.5" />
            </Array>
          </mxGeometry>
        </mxCell>
        <mxCell id="DcH7xlDTEvAQclnFNCwV-13" value="" style="endArrow=classic;html=1;rounded=0;dashed=1;dashPattern=8 8;" edge="1" parent="1">
          <mxGeometry width="50" height="50" relative="1" as="geometry">
            <mxPoint x="650" y="170" as="sourcePoint" />
            <mxPoint x="430" y="70" as="targetPoint" />
          </mxGeometry>
        </mxCell>
        <mxCell id="DcH7xlDTEvAQclnFNCwV-14" value="" style="endArrow=classic;html=1;rounded=0;dashed=1;" edge="1" parent="1">
          <mxGeometry width="50" height="50" relative="1" as="geometry">
            <mxPoint x="310" y="210" as="sourcePoint" />
            <mxPoint x="210" y="210" as="targetPoint" />
          </mxGeometry>
        </mxCell>
        <mxCell id="DcH7xlDTEvAQclnFNCwV-15" value="" style="endArrow=classic;html=1;rounded=0;dashed=1;" edge="1" parent="1">
          <mxGeometry width="50" height="50" relative="1" as="geometry">
            <mxPoint x="210" y="240" as="sourcePoint" />
            <mxPoint x="310" y="240" as="targetPoint" />
          </mxGeometry>
        </mxCell>
        <mxCell id="DcH7xlDTEvAQclnFNCwV-16" value="" style="endArrow=classic;html=1;rounded=0;dashed=1;" edge="1" parent="1">
          <mxGeometry width="50" height="50" relative="1" as="geometry">
            <mxPoint x="400" y="270" as="sourcePoint" />
            <mxPoint x="400" y="370" as="targetPoint" />
          </mxGeometry>
        </mxCell>
        <mxCell id="DcH7xlDTEvAQclnFNCwV-17" value="" style="endArrow=classic;html=1;rounded=0;dashed=1;" edge="1" parent="1">
          <mxGeometry width="50" height="50" relative="1" as="geometry">
            <mxPoint x="440" y="370" as="sourcePoint" />
            <mxPoint x="440" y="270" as="targetPoint" />
          </mxGeometry>
        </mxCell>
        <mxCell id="DcH7xlDTEvAQclnFNCwV-18" value="" style="endArrow=classic;html=1;rounded=0;dashed=1;" edge="1" parent="1">
          <mxGeometry width="50" height="50" relative="1" as="geometry">
            <mxPoint x="410" y="180" as="sourcePoint" />
            <mxPoint x="410" y="100" as="targetPoint" />
          </mxGeometry>
        </mxCell>
        <mxCell id="DcH7xlDTEvAQclnFNCwV-19" value="سرویس ارائه دهنده خدمات &lt;br&gt;به کلاینت ها در قالب &lt;br&gt;api" style="rounded=1;whiteSpace=wrap;html=1;fillColor=#dae8fc;strokeColor=#6c8ebf;" vertex="1" parent="1">
          <mxGeometry x="20" y="810" width="790" height="390" as="geometry" />
        </mxCell>
        <mxCell id="DcH7xlDTEvAQclnFNCwV-20" value="&lt;font style=&quot;font-size: 15px;&quot;&gt;&lt;b&gt;Capital management system&lt;/b&gt;&lt;/font&gt;" style="text;html=1;align=center;verticalAlign=middle;resizable=0;points=[];autosize=1;strokeColor=none;fillColor=none;" vertex="1" parent="1">
          <mxGeometry x="30" y="640" width="230" height="30" as="geometry" />
        </mxCell>
        <mxCell id="DcH7xlDTEvAQclnFNCwV-21" value="&lt;font style=&quot;font-size: 14px;&quot;&gt;&lt;b&gt;OTP code sender&lt;br&gt;service&lt;/b&gt;&lt;/font&gt;" style="rounded=1;whiteSpace=wrap;html=1;fillColor=#f5f5f5;fontColor=#333333;strokeColor=#666666;" vertex="1" parent="1">
          <mxGeometry x="970" y="987" width="120" height="60" as="geometry" />
        </mxCell>
        <mxCell id="DcH7xlDTEvAQclnFNCwV-22" value="&lt;b&gt;&lt;font style=&quot;font-size: 15px;&quot;&gt;‌Burce&lt;/font&gt;&lt;/b&gt;" style="rounded=1;whiteSpace=wrap;html=1;fillColor=#f5f5f5;strokeColor=#666666;fontColor=#333333;" vertex="1" parent="1">
          <mxGeometry x="360" y="1290" width="120" height="60" as="geometry" />
        </mxCell>
        <mxCell id="DcH7xlDTEvAQclnFNCwV-23" value="&lt;b style=&quot;font-size: 15px;&quot;&gt;Employment &lt;br&gt;websites&lt;/b&gt;" style="rounded=1;whiteSpace=wrap;html=1;fillColor=#f5f5f5;fontColor=#333333;strokeColor=#666666;" vertex="1" parent="1">
          <mxGeometry x="-180" y="977" width="170" height="80" as="geometry" />
        </mxCell>
        <mxCell id="DcH7xlDTEvAQclnFNCwV-24" value="&lt;b&gt;&lt;font style=&quot;font-size: 15px;&quot;&gt;API application&lt;/font&gt;&lt;/b&gt;" style="rounded=0;whiteSpace=wrap;html=1;fillColor=#0050ef;strokeColor=#001DBC;fontColor=#ffffff;" vertex="1" parent="1">
          <mxGeometry x="337.5" y="1047" width="165" height="88" as="geometry" />
        </mxCell>
        <mxCell id="DcH7xlDTEvAQclnFNCwV-25" value="&lt;b&gt;&lt;font style=&quot;font-size: 14px;&quot;&gt;web application&lt;/font&gt;&lt;/b&gt;" style="rounded=0;whiteSpace=wrap;html=1;fillColor=#0050ef;strokeColor=#001DBC;fontColor=#ffffff;" vertex="1" parent="1">
          <mxGeometry x="150" y="880" width="166" height="78" as="geometry" />
        </mxCell>
        <mxCell id="DcH7xlDTEvAQclnFNCwV-26" value="&lt;b&gt;&lt;font style=&quot;font-size: 14px;&quot;&gt;android application&lt;/font&gt;&lt;/b&gt;" style="rounded=0;whiteSpace=wrap;html=1;fillColor=#0050ef;strokeColor=#001DBC;fontColor=#ffffff;" vertex="1" parent="1">
          <mxGeometry x="480" y="880" width="190" height="82" as="geometry" />
        </mxCell>
        <mxCell id="DcH7xlDTEvAQclnFNCwV-27" value="Actor" style="shape=umlActor;verticalLabelPosition=bottom;verticalAlign=top;html=1;outlineConnect=0;" vertex="1" parent="1">
          <mxGeometry x="160" y="680" width="30" height="60" as="geometry" />
        </mxCell>
        <mxCell id="DcH7xlDTEvAQclnFNCwV-28" value="&lt;b&gt;&lt;font style=&quot;font-size: 14px;&quot;&gt;DB&lt;/font&gt;&lt;/b&gt;" style="strokeWidth=2;html=1;shape=mxgraph.flowchart.database;whiteSpace=wrap;fillColor=#0050ef;strokeColor=#001DBC;fontColor=#ffffff;" vertex="1" parent="1">
          <mxGeometry x="100" y="1047" width="90" height="113" as="geometry" />
        </mxCell>
        <mxCell id="DcH7xlDTEvAQclnFNCwV-29" value="" style="endArrow=none;html=1;rounded=0;entryX=0.121;entryY=0.037;entryDx=0;entryDy=0;entryPerimeter=0;exitX=0.121;exitY=1;exitDx=0;exitDy=0;exitPerimeter=0;dashed=1;dashPattern=1 4;" edge="1" parent="1" source="DcH7xlDTEvAQclnFNCwV-26" target="DcH7xlDTEvAQclnFNCwV-26">
          <mxGeometry width="50" height="50" relative="1" as="geometry">
            <mxPoint x="550" y="954" as="sourcePoint" />
            <mxPoint x="600" y="904" as="targetPoint" />
          </mxGeometry>
        </mxCell>
        <mxCell id="DcH7xlDTEvAQclnFNCwV-33" value="" style="endArrow=classic;html=1;rounded=0;dashed=1;" edge="1" parent="1" target="DcH7xlDTEvAQclnFNCwV-25">
          <mxGeometry width="50" height="50" relative="1" as="geometry">
            <mxPoint x="174.5" y="760" as="sourcePoint" />
            <mxPoint x="174.5" y="810" as="targetPoint" />
          </mxGeometry>
        </mxCell>
        <mxCell id="DcH7xlDTEvAQclnFNCwV-34" value="Actor" style="shape=umlActor;verticalLabelPosition=bottom;verticalAlign=top;html=1;outlineConnect=0;" vertex="1" parent="1">
          <mxGeometry x="560" y="680" width="30" height="60" as="geometry" />
        </mxCell>
        <mxCell id="DcH7xlDTEvAQclnFNCwV-35" value="" style="endArrow=classic;html=1;rounded=0;entryX=0.5;entryY=0;entryDx=0;entryDy=0;dashed=1;" edge="1" parent="1" target="DcH7xlDTEvAQclnFNCwV-26">
          <mxGeometry width="50" height="50" relative="1" as="geometry">
            <mxPoint x="574.5" y="760" as="sourcePoint" />
            <mxPoint x="574.5" y="810" as="targetPoint" />
          </mxGeometry>
        </mxCell>
        <mxCell id="DcH7xlDTEvAQclnFNCwV-38" value="" style="endArrow=classic;html=1;rounded=0;exitX=0.657;exitY=1.051;exitDx=0;exitDy=0;exitPerimeter=0;dashed=1;entryX=0.136;entryY=0.034;entryDx=0;entryDy=0;entryPerimeter=0;" edge="1" parent="1" source="DcH7xlDTEvAQclnFNCwV-25" target="DcH7xlDTEvAQclnFNCwV-24">
          <mxGeometry width="50" height="50" relative="1" as="geometry">
            <mxPoint x="330" y="1030" as="sourcePoint" />
            <mxPoint x="340" y="1030" as="targetPoint" />
          </mxGeometry>
        </mxCell>
        <mxCell id="DcH7xlDTEvAQclnFNCwV-39" value="" style="endArrow=classic;html=1;rounded=0;exitX=0.621;exitY=1.049;exitDx=0;exitDy=0;exitPerimeter=0;entryX=0.918;entryY=0.011;entryDx=0;entryDy=0;entryPerimeter=0;dashed=1;" edge="1" parent="1" source="DcH7xlDTEvAQclnFNCwV-26" target="DcH7xlDTEvAQclnFNCwV-24">
          <mxGeometry width="50" height="50" relative="1" as="geometry">
            <mxPoint x="330" y="1030" as="sourcePoint" />
            <mxPoint x="500" y="1020" as="targetPoint" />
          </mxGeometry>
        </mxCell>
        <mxCell id="DcH7xlDTEvAQclnFNCwV-40" value="" style="endArrow=classic;html=1;rounded=0;entryX=0.25;entryY=1;entryDx=0;entryDy=0;dashed=1;exitX=0.561;exitY=0.011;exitDx=0;exitDy=0;exitPerimeter=0;" edge="1" parent="1" source="DcH7xlDTEvAQclnFNCwV-24" target="DcH7xlDTEvAQclnFNCwV-26">
          <mxGeometry width="50" height="50" relative="1" as="geometry">
            <mxPoint x="460" y="1020" as="sourcePoint" />
            <mxPoint x="380" y="980" as="targetPoint" />
          </mxGeometry>
        </mxCell>
        <mxCell id="DcH7xlDTEvAQclnFNCwV-41" value="" style="endArrow=classic;html=1;rounded=0;entryX=0.904;entryY=1.026;entryDx=0;entryDy=0;entryPerimeter=0;dashed=1;exitX=0.355;exitY=-0.023;exitDx=0;exitDy=0;exitPerimeter=0;" edge="1" parent="1" source="DcH7xlDTEvAQclnFNCwV-24" target="DcH7xlDTEvAQclnFNCwV-25">
          <mxGeometry width="50" height="50" relative="1" as="geometry">
            <mxPoint x="370" y="1020" as="sourcePoint" />
            <mxPoint x="380" y="980" as="targetPoint" />
          </mxGeometry>
        </mxCell>
        <mxCell id="DcH7xlDTEvAQclnFNCwV-42" value="" style="endArrow=classic;html=1;rounded=0;entryX=1;entryY=0.301;entryDx=0;entryDy=0;entryPerimeter=0;exitX=0.015;exitY=0.364;exitDx=0;exitDy=0;exitPerimeter=0;dashed=1;" edge="1" parent="1" source="DcH7xlDTEvAQclnFNCwV-24" target="DcH7xlDTEvAQclnFNCwV-28">
          <mxGeometry width="50" height="50" relative="1" as="geometry">
            <mxPoint x="330" y="1030" as="sourcePoint" />
            <mxPoint x="380" y="980" as="targetPoint" />
          </mxGeometry>
        </mxCell>
        <mxCell id="DcH7xlDTEvAQclnFNCwV-44" value="" style="endArrow=classic;html=1;rounded=0;exitX=1;exitY=0.5;exitDx=0;exitDy=0;exitPerimeter=0;entryX=-0.015;entryY=0.636;entryDx=0;entryDy=0;entryPerimeter=0;dashed=1;" edge="1" parent="1" source="DcH7xlDTEvAQclnFNCwV-28" target="DcH7xlDTEvAQclnFNCwV-24">
          <mxGeometry width="50" height="50" relative="1" as="geometry">
            <mxPoint x="330" y="1030" as="sourcePoint" />
            <mxPoint x="380" y="980" as="targetPoint" />
          </mxGeometry>
        </mxCell>
        <mxCell id="DcH7xlDTEvAQclnFNCwV-45" value="" style="endArrow=classic;html=1;rounded=0;exitX=0.5;exitY=1;exitDx=0;exitDy=0;dashed=1;" edge="1" parent="1" source="DcH7xlDTEvAQclnFNCwV-24">
          <mxGeometry width="50" height="50" relative="1" as="geometry">
            <mxPoint x="330" y="1060" as="sourcePoint" />
            <mxPoint x="420" y="1280" as="targetPoint" />
          </mxGeometry>
        </mxCell>
        <mxCell id="DcH7xlDTEvAQclnFNCwV-46" value="" style="endArrow=classic;html=1;rounded=0;dashed=1;exitX=1;exitY=0.75;exitDx=0;exitDy=0;" edge="1" parent="1" source="DcH7xlDTEvAQclnFNCwV-24">
          <mxGeometry width="50" height="50" relative="1" as="geometry">
            <mxPoint x="540" y="1100" as="sourcePoint" />
            <mxPoint x="960" y="1020" as="targetPoint" />
          </mxGeometry>
        </mxCell>
        <mxCell id="DcH7xlDTEvAQclnFNCwV-47" value="" style="endArrow=classic;html=1;rounded=0;dashed=1;" edge="1" parent="1">
          <mxGeometry width="50" height="50" relative="1" as="geometry">
            <mxPoint x="1030" y="977" as="sourcePoint" />
            <mxPoint x="630" y="710" as="targetPoint" />
          </mxGeometry>
        </mxCell>
        <mxCell id="DcH7xlDTEvAQclnFNCwV-48" value="" style="endArrow=classic;html=1;rounded=0;exitX=0.003;exitY=0.102;exitDx=0;exitDy=0;exitPerimeter=0;dashed=1;" edge="1" parent="1" source="DcH7xlDTEvAQclnFNCwV-24">
          <mxGeometry width="50" height="50" relative="1" as="geometry">
            <mxPoint x="460" y="1120" as="sourcePoint" />
            <mxPoint y="1000" as="targetPoint" />
          </mxGeometry>
        </mxCell>
        <mxCell id="DcH7xlDTEvAQclnFNCwV-50" value="&lt;b&gt;&lt;font style=&quot;font-size: 18px;&quot;&gt;API application&lt;/font&gt;&lt;/b&gt;" style="text;html=1;align=center;verticalAlign=middle;resizable=0;points=[];autosize=1;strokeColor=none;fillColor=none;" vertex="1" parent="1">
          <mxGeometry x="-20" y="1360" width="150" height="40" as="geometry" />
        </mxCell>
        <mxCell id="DcH7xlDTEvAQclnFNCwV-51" value="" style="rounded=1;whiteSpace=wrap;html=1;fillColor=#dae8fc;strokeColor=#6c8ebf;" vertex="1" parent="1">
          <mxGeometry x="10" y="1560" width="630" height="340" as="geometry" />
        </mxCell>
        <mxCell id="DcH7xlDTEvAQclnFNCwV-61" value="" style="edgeStyle=orthogonalEdgeStyle;rounded=0;orthogonalLoop=1;jettySize=auto;html=1;dashed=1;" edge="1" parent="1" source="DcH7xlDTEvAQclnFNCwV-52" target="DcH7xlDTEvAQclnFNCwV-53">
          <mxGeometry relative="1" as="geometry" />
        </mxCell>
        <mxCell id="DcH7xlDTEvAQclnFNCwV-69" value="" style="edgeStyle=orthogonalEdgeStyle;rounded=0;orthogonalLoop=1;jettySize=auto;html=1;dashed=1;" edge="1" parent="1" source="DcH7xlDTEvAQclnFNCwV-52" target="DcH7xlDTEvAQclnFNCwV-59">
          <mxGeometry relative="1" as="geometry" />
        </mxCell>
        <mxCell id="DcH7xlDTEvAQclnFNCwV-52" value="&lt;b&gt;&lt;font style=&quot;font-size: 15px;&quot;&gt;register&lt;/font&gt;&lt;/b&gt;" style="rounded=1;whiteSpace=wrap;html=1;fillColor=#dae8fc;gradientColor=#7ea6e0;strokeColor=#6c8ebf;" vertex="1" parent="1">
          <mxGeometry x="66" y="1590" width="120" height="60" as="geometry" />
        </mxCell>
        <mxCell id="DcH7xlDTEvAQclnFNCwV-62" value="" style="edgeStyle=orthogonalEdgeStyle;rounded=0;orthogonalLoop=1;jettySize=auto;html=1;dashed=1;" edge="1" parent="1" source="DcH7xlDTEvAQclnFNCwV-53" target="DcH7xlDTEvAQclnFNCwV-55">
          <mxGeometry relative="1" as="geometry" />
        </mxCell>
        <mxCell id="DcH7xlDTEvAQclnFNCwV-53" value="&lt;b&gt;&lt;font style=&quot;font-size: 15px;&quot;&gt;login&lt;/font&gt;&lt;/b&gt;" style="rounded=1;whiteSpace=wrap;html=1;fillColor=#dae8fc;gradientColor=#7ea6e0;strokeColor=#6c8ebf;" vertex="1" parent="1">
          <mxGeometry x="250" y="1590" width="120" height="60" as="geometry" />
        </mxCell>
        <mxCell id="DcH7xlDTEvAQclnFNCwV-70" value="" style="edgeStyle=orthogonalEdgeStyle;rounded=0;orthogonalLoop=1;jettySize=auto;html=1;dashed=1;" edge="1" parent="1" source="DcH7xlDTEvAQclnFNCwV-54" target="DcH7xlDTEvAQclnFNCwV-60">
          <mxGeometry relative="1" as="geometry" />
        </mxCell>
        <mxCell id="DcH7xlDTEvAQclnFNCwV-54" value="&lt;font size=&quot;1&quot;&gt;&lt;b style=&quot;font-size: 16px;&quot;&gt;exchange&lt;/b&gt;&lt;/font&gt;" style="rounded=1;whiteSpace=wrap;html=1;fillColor=#dae8fc;gradientColor=#7ea6e0;strokeColor=#6c8ebf;" vertex="1" parent="1">
          <mxGeometry x="450" y="1790" width="120" height="60" as="geometry" />
        </mxCell>
        <mxCell id="DcH7xlDTEvAQclnFNCwV-55" value="&lt;b&gt;&lt;font style=&quot;font-size: 14px;&quot;&gt;account information&lt;/font&gt;&lt;/b&gt;" style="rounded=1;whiteSpace=wrap;html=1;fillColor=#dae8fc;gradientColor=#7ea6e0;strokeColor=#6c8ebf;" vertex="1" parent="1">
          <mxGeometry x="450" y="1590" width="120" height="60" as="geometry" />
        </mxCell>
        <mxCell id="DcH7xlDTEvAQclnFNCwV-56" value="&lt;b&gt;&lt;font style=&quot;font-size: 15px;&quot;&gt;Capital management&lt;/font&gt;&lt;/b&gt;" style="rounded=1;whiteSpace=wrap;html=1;fillColor=#dae8fc;gradientColor=#7ea6e0;strokeColor=#6c8ebf;" vertex="1" parent="1">
          <mxGeometry x="260" y="1690" width="120" height="60" as="geometry" />
        </mxCell>
        <mxCell id="DcH7xlDTEvAQclnFNCwV-57" value="&lt;b&gt;&lt;font style=&quot;font-size: 15px;&quot;&gt;Financial goals&lt;/font&gt;&lt;/b&gt;" style="rounded=1;whiteSpace=wrap;html=1;fillColor=#dae8fc;gradientColor=#7ea6e0;strokeColor=#6c8ebf;" vertex="1" parent="1">
          <mxGeometry x="60" y="1790" width="120" height="60" as="geometry" />
        </mxCell>
        <mxCell id="DcH7xlDTEvAQclnFNCwV-58" value="&lt;b&gt;&lt;font style=&quot;font-size: 15px;&quot;&gt;Financial ideas&lt;/font&gt;&lt;/b&gt;" style="rounded=1;whiteSpace=wrap;html=1;fillColor=#dae8fc;gradientColor=#7ea6e0;strokeColor=#6c8ebf;" vertex="1" parent="1">
          <mxGeometry x="260" y="1790" width="120" height="60" as="geometry" />
        </mxCell>
        <mxCell id="DcH7xlDTEvAQclnFNCwV-59" value="&lt;font style=&quot;font-size: 14px;&quot;&gt;&lt;b&gt;OTP code sender&lt;br&gt;service&lt;/b&gt;&lt;/font&gt;" style="rounded=1;whiteSpace=wrap;html=1;fillColor=#f5f5f5;strokeColor=#666666;gradientColor=#b3b3b3;" vertex="1" parent="1">
          <mxGeometry x="50" y="1450" width="120" height="60" as="geometry" />
        </mxCell>
        <mxCell id="DcH7xlDTEvAQclnFNCwV-60" value="&lt;b&gt;&lt;font style=&quot;font-size: 15px;&quot;&gt;‌Burce&lt;/font&gt;&lt;/b&gt;" style="rounded=1;whiteSpace=wrap;html=1;fillColor=#f5f5f5;strokeColor=#666666;gradientColor=#b3b3b3;" vertex="1" parent="1">
          <mxGeometry x="460" y="1930" width="120" height="60" as="geometry" />
        </mxCell>
        <mxCell id="DcH7xlDTEvAQclnFNCwV-63" value="" style="endArrow=classic;html=1;rounded=0;exitX=0.25;exitY=1;exitDx=0;exitDy=0;entryX=0.992;entryY=0.4;entryDx=0;entryDy=0;entryPerimeter=0;dashed=1;" edge="1" parent="1" source="DcH7xlDTEvAQclnFNCwV-55" target="DcH7xlDTEvAQclnFNCwV-56">
          <mxGeometry width="50" height="50" relative="1" as="geometry">
            <mxPoint x="460" y="1840" as="sourcePoint" />
            <mxPoint x="510" y="1790" as="targetPoint" />
          </mxGeometry>
        </mxCell>
        <mxCell id="DcH7xlDTEvAQclnFNCwV-64" value="" style="endArrow=classic;startArrow=classic;html=1;rounded=0;entryX=0;entryY=0.5;entryDx=0;entryDy=0;exitX=1;exitY=0.5;exitDx=0;exitDy=0;dashed=1;" edge="1" parent="1" source="DcH7xlDTEvAQclnFNCwV-57" target="DcH7xlDTEvAQclnFNCwV-58">
          <mxGeometry width="50" height="50" relative="1" as="geometry">
            <mxPoint x="186" y="1830" as="sourcePoint" />
            <mxPoint x="236" y="1780" as="targetPoint" />
          </mxGeometry>
        </mxCell>
        <mxCell id="DcH7xlDTEvAQclnFNCwV-65" value="" style="endArrow=classic;startArrow=classic;html=1;rounded=0;exitX=1;exitY=0.5;exitDx=0;exitDy=0;dashed=1;" edge="1" parent="1">
          <mxGeometry width="50" height="50" relative="1" as="geometry">
            <mxPoint x="380" y="1819.5" as="sourcePoint" />
            <mxPoint x="450" y="1820" as="targetPoint" />
          </mxGeometry>
        </mxCell>
        <mxCell id="DcH7xlDTEvAQclnFNCwV-66" value="" style="endArrow=classic;startArrow=classic;html=1;rounded=0;exitX=0.5;exitY=1;exitDx=0;exitDy=0;entryX=0.5;entryY=0;entryDx=0;entryDy=0;dashed=1;" edge="1" parent="1" source="DcH7xlDTEvAQclnFNCwV-56" target="DcH7xlDTEvAQclnFNCwV-58">
          <mxGeometry width="50" height="50" relative="1" as="geometry">
            <mxPoint x="390" y="1829.5" as="sourcePoint" />
            <mxPoint x="460" y="1830" as="targetPoint" />
          </mxGeometry>
        </mxCell>
        <mxCell id="DcH7xlDTEvAQclnFNCwV-67" value="" style="endArrow=classic;startArrow=classic;html=1;rounded=0;exitX=0.592;exitY=-0.05;exitDx=0;exitDy=0;entryX=0;entryY=0.5;entryDx=0;entryDy=0;exitPerimeter=0;dashed=1;" edge="1" parent="1" source="DcH7xlDTEvAQclnFNCwV-57" target="DcH7xlDTEvAQclnFNCwV-56">
          <mxGeometry width="50" height="50" relative="1" as="geometry">
            <mxPoint x="400" y="1839.5" as="sourcePoint" />
            <mxPoint x="470" y="1840" as="targetPoint" />
          </mxGeometry>
        </mxCell>
        <mxCell id="DcH7xlDTEvAQclnFNCwV-68" value="" style="endArrow=classic;startArrow=classic;html=1;rounded=0;exitX=1.033;exitY=0.65;exitDx=0;exitDy=0;exitPerimeter=0;entryX=0.5;entryY=0;entryDx=0;entryDy=0;dashed=1;" edge="1" parent="1" source="DcH7xlDTEvAQclnFNCwV-56" target="DcH7xlDTEvAQclnFNCwV-54">
          <mxGeometry width="50" height="50" relative="1" as="geometry">
            <mxPoint x="410" y="1849.5" as="sourcePoint" />
            <mxPoint x="480" y="1850" as="targetPoint" />
          </mxGeometry>
        </mxCell>
        <mxCell id="O9FOWHWTUfD2SyWnDe9T-1" value="&lt;font style=&quot;font-size: 15px;&quot;&gt;DB&lt;/font&gt;" style="shape=cylinder3;whiteSpace=wrap;html=1;boundedLbl=1;backgroundOutline=1;size=15;fillColor=#0050ef;fontColor=#ffffff;strokeColor=#001DBC;" vertex="1" parent="1">
          <mxGeometry x="-120" y="1670" width="60" height="80" as="geometry" />
        </mxCell>
        <mxCell id="O9FOWHWTUfD2SyWnDe9T-3" value="" style="endArrow=classic;html=1;rounded=0;entryX=1;entryY=0.5;entryDx=0;entryDy=0;entryPerimeter=0;dashed=1;" edge="1" parent="1" source="DcH7xlDTEvAQclnFNCwV-56" target="O9FOWHWTUfD2SyWnDe9T-1">
          <mxGeometry width="50" height="50" relative="1" as="geometry">
            <mxPoint x="460" y="1770" as="sourcePoint" />
            <mxPoint x="510" y="1720" as="targetPoint" />
          </mxGeometry>
        </mxCell>
        <mxCell id="O9FOWHWTUfD2SyWnDe9T-4" value="&lt;b&gt;&lt;font style=&quot;font-size: 15px;&quot;&gt;Capital management&lt;/font&gt;&lt;/b&gt;" style="text;html=1;align=center;verticalAlign=middle;resizable=0;points=[];autosize=1;strokeColor=none;fillColor=none;" vertex="1" parent="1">
          <mxGeometry x="330" y="2140" width="170" height="30" as="geometry" />
        </mxCell>
        <mxCell id="O9FOWHWTUfD2SyWnDe9T-5" value="IncomeAndExpenses" style="swimlane;fontStyle=1;align=center;verticalAlign=top;childLayout=stackLayout;horizontal=1;startSize=26;horizontalStack=0;resizeParent=1;resizeParentMax=0;resizeLast=0;collapsible=1;marginBottom=0;whiteSpace=wrap;html=1;" vertex="1" parent="1">
          <mxGeometry x="230" y="2260" width="210" height="160" as="geometry" />
        </mxCell>
        <mxCell id="O9FOWHWTUfD2SyWnDe9T-6" value="&lt;div&gt;+ title: string&lt;/div&gt;&lt;div&gt;+ description: string&lt;/div&gt;&lt;div&gt;+ amount: float32&lt;/div&gt;&lt;div&gt;+ date:time&lt;/div&gt;&lt;div&gt;+ category:string&lt;br&gt; &lt;/div&gt;" style="text;strokeColor=none;fillColor=none;align=left;verticalAlign=top;spacingLeft=4;spacingRight=4;overflow=hidden;rotatable=0;points=[[0,0.5],[1,0.5]];portConstraint=eastwest;whiteSpace=wrap;html=1;" vertex="1" parent="O9FOWHWTUfD2SyWnDe9T-5">
          <mxGeometry y="26" width="210" height="84" as="geometry" />
        </mxCell>
        <mxCell id="O9FOWHWTUfD2SyWnDe9T-7" value="" style="line;strokeWidth=1;fillColor=none;align=left;verticalAlign=middle;spacingTop=-1;spacingLeft=3;spacingRight=3;rotatable=0;labelPosition=right;points=[];portConstraint=eastwest;strokeColor=inherit;" vertex="1" parent="O9FOWHWTUfD2SyWnDe9T-5">
          <mxGeometry y="110" width="210" height="8" as="geometry" />
        </mxCell>
        <mxCell id="O9FOWHWTUfD2SyWnDe9T-8" value="&lt;div&gt;+ checkBalance(): bool&lt;/div&gt;&lt;div&gt;+ update()&lt;/div&gt;&lt;div&gt;&lt;br&gt;&lt;/div&gt;" style="text;strokeColor=none;fillColor=none;align=left;verticalAlign=top;spacingLeft=4;spacingRight=4;overflow=hidden;rotatable=0;points=[[0,0.5],[1,0.5]];portConstraint=eastwest;whiteSpace=wrap;html=1;" vertex="1" parent="O9FOWHWTUfD2SyWnDe9T-5">
          <mxGeometry y="118" width="210" height="42" as="geometry" />
        </mxCell>
        <mxCell id="O9FOWHWTUfD2SyWnDe9T-9" value="detailIncomeAndExpenses" style="swimlane;fontStyle=1;align=center;verticalAlign=top;childLayout=stackLayout;horizontal=1;startSize=26;horizontalStack=0;resizeParent=1;resizeParentMax=0;resizeLast=0;collapsible=1;marginBottom=0;whiteSpace=wrap;html=1;" vertex="1" parent="1">
          <mxGeometry x="400" y="2490" width="170" height="250" as="geometry" />
        </mxCell>
        <mxCell id="O9FOWHWTUfD2SyWnDe9T-10" value="&lt;div&gt;+&amp;nbsp; title: string&lt;/div&gt;&lt;div&gt;+ description: string&lt;/div&gt;&lt;div&gt;+ amount : string&lt;/div&gt;&lt;div&gt;+ category: string&lt;/div&gt;&lt;div&gt;+ IncomeAndExpensesID: int&lt;/div&gt;&lt;div&gt;&lt;br&gt;&lt;/div&gt;" style="text;strokeColor=none;fillColor=none;align=left;verticalAlign=top;spacingLeft=4;spacingRight=4;overflow=hidden;rotatable=0;points=[[0,0.5],[1,0.5]];portConstraint=eastwest;whiteSpace=wrap;html=1;" vertex="1" parent="O9FOWHWTUfD2SyWnDe9T-9">
          <mxGeometry y="26" width="170" height="174" as="geometry" />
        </mxCell>
        <mxCell id="O9FOWHWTUfD2SyWnDe9T-11" value="" style="line;strokeWidth=1;fillColor=none;align=left;verticalAlign=middle;spacingTop=-1;spacingLeft=3;spacingRight=3;rotatable=0;labelPosition=right;points=[];portConstraint=eastwest;strokeColor=inherit;" vertex="1" parent="O9FOWHWTUfD2SyWnDe9T-9">
          <mxGeometry y="200" width="170" height="8" as="geometry" />
        </mxCell>
        <mxCell id="O9FOWHWTUfD2SyWnDe9T-12" value="&lt;div&gt;+ checkBalance(): bool&lt;/div&gt;&lt;div&gt;+ update()&lt;/div&gt;&lt;div&gt;&lt;br&gt;&lt;br&gt;&lt;/div&gt;" style="text;strokeColor=none;fillColor=none;align=left;verticalAlign=top;spacingLeft=4;spacingRight=4;overflow=hidden;rotatable=0;points=[[0,0.5],[1,0.5]];portConstraint=eastwest;whiteSpace=wrap;html=1;" vertex="1" parent="O9FOWHWTUfD2SyWnDe9T-9">
          <mxGeometry y="208" width="170" height="42" as="geometry" />
        </mxCell>
        <mxCell id="O9FOWHWTUfD2SyWnDe9T-25" value="IncomeAndExpensesCategory" style="swimlane;fontStyle=1;align=center;verticalAlign=top;childLayout=stackLayout;horizontal=1;startSize=26;horizontalStack=0;resizeParent=1;resizeParentMax=0;resizeLast=0;collapsible=1;marginBottom=0;whiteSpace=wrap;html=1;" vertex="1" parent="1">
          <mxGeometry x="130" y="2790" width="190" height="78" as="geometry" />
        </mxCell>
        <mxCell id="O9FOWHWTUfD2SyWnDe9T-26" value="+ name:string()" style="text;strokeColor=none;fillColor=none;align=left;verticalAlign=top;spacingLeft=4;spacingRight=4;overflow=hidden;rotatable=0;points=[[0,0.5],[1,0.5]];portConstraint=eastwest;whiteSpace=wrap;html=1;" vertex="1" parent="O9FOWHWTUfD2SyWnDe9T-25">
          <mxGeometry y="26" width="190" height="44" as="geometry" />
        </mxCell>
        <mxCell id="O9FOWHWTUfD2SyWnDe9T-27" value="" style="line;strokeWidth=1;fillColor=none;align=left;verticalAlign=middle;spacingTop=-1;spacingLeft=3;spacingRight=3;rotatable=0;labelPosition=right;points=[];portConstraint=eastwest;strokeColor=inherit;" vertex="1" parent="O9FOWHWTUfD2SyWnDe9T-25">
          <mxGeometry y="70" width="190" height="8" as="geometry" />
        </mxCell>
        <mxCell id="O9FOWHWTUfD2SyWnDe9T-34" value="Relation" style="endArrow=open;html=1;endSize=12;startArrow=diamondThin;startSize=14;startFill=0;edgeStyle=orthogonalEdgeStyle;rounded=0;entryX=1;entryY=0.5;entryDx=0;entryDy=0;" edge="1" parent="1" target="O9FOWHWTUfD2SyWnDe9T-38">
          <mxGeometry relative="1" as="geometry">
            <mxPoint x="220" y="2330" as="sourcePoint" />
            <mxPoint x="460" y="2510" as="targetPoint" />
          </mxGeometry>
        </mxCell>
        <mxCell id="O9FOWHWTUfD2SyWnDe9T-35" value="0..n" style="edgeLabel;resizable=0;html=1;align=left;verticalAlign=top;" connectable="0" vertex="1" parent="O9FOWHWTUfD2SyWnDe9T-34">
          <mxGeometry x="-1" relative="1" as="geometry" />
        </mxCell>
        <mxCell id="O9FOWHWTUfD2SyWnDe9T-36" value="1" style="edgeLabel;resizable=0;html=1;align=right;verticalAlign=top;" connectable="0" vertex="1" parent="O9FOWHWTUfD2SyWnDe9T-34">
          <mxGeometry x="1" relative="1" as="geometry" />
        </mxCell>
        <mxCell id="O9FOWHWTUfD2SyWnDe9T-37" value="user" style="swimlane;fontStyle=1;align=center;verticalAlign=top;childLayout=stackLayout;horizontal=1;startSize=26;horizontalStack=0;resizeParent=1;resizeParentMax=0;resizeLast=0;collapsible=1;marginBottom=0;whiteSpace=wrap;html=1;" vertex="1" parent="1">
          <mxGeometry x="-200" y="2260" width="200" height="144" as="geometry" />
        </mxCell>
        <mxCell id="O9FOWHWTUfD2SyWnDe9T-38" value="&lt;div&gt;+ name: string&lt;/div&gt;&lt;div&gt;+ firstName: string&lt;/div&gt;&lt;div&gt;+ username: string&lt;/div&gt;" style="text;strokeColor=none;fillColor=none;align=left;verticalAlign=top;spacingLeft=4;spacingRight=4;overflow=hidden;rotatable=0;points=[[0,0.5],[1,0.5]];portConstraint=eastwest;whiteSpace=wrap;html=1;" vertex="1" parent="O9FOWHWTUfD2SyWnDe9T-37">
          <mxGeometry y="26" width="200" height="84" as="geometry" />
        </mxCell>
        <mxCell id="O9FOWHWTUfD2SyWnDe9T-39" value="" style="line;strokeWidth=1;fillColor=none;align=left;verticalAlign=middle;spacingTop=-1;spacingLeft=3;spacingRight=3;rotatable=0;labelPosition=right;points=[];portConstraint=eastwest;strokeColor=inherit;" vertex="1" parent="O9FOWHWTUfD2SyWnDe9T-37">
          <mxGeometry y="110" width="200" height="8" as="geometry" />
        </mxCell>
        <mxCell id="O9FOWHWTUfD2SyWnDe9T-40" value="+ method(type): type" style="text;strokeColor=none;fillColor=none;align=left;verticalAlign=top;spacingLeft=4;spacingRight=4;overflow=hidden;rotatable=0;points=[[0,0.5],[1,0.5]];portConstraint=eastwest;whiteSpace=wrap;html=1;" vertex="1" parent="O9FOWHWTUfD2SyWnDe9T-37">
          <mxGeometry y="118" width="200" height="26" as="geometry" />
        </mxCell>
        <mxCell id="O9FOWHWTUfD2SyWnDe9T-45" value="Use" style="endArrow=open;endSize=12;dashed=1;html=1;rounded=0;exitX=0.052;exitY=1.119;exitDx=0;exitDy=0;exitPerimeter=0;entryX=1;entryY=0.25;entryDx=0;entryDy=0;" edge="1" parent="1" source="O9FOWHWTUfD2SyWnDe9T-8" target="hzWPyJIUvlIUAcMJF-7f-11">
          <mxGeometry width="160" relative="1" as="geometry">
            <mxPoint x="80" y="2569.234" as="sourcePoint" />
            <mxPoint x="135" y="2780" as="targetPoint" />
          </mxGeometry>
        </mxCell>
        <mxCell id="O9FOWHWTUfD2SyWnDe9T-46" value="Use" style="endArrow=open;endSize=12;dashed=1;html=1;rounded=0;exitX=0;exitY=0.5;exitDx=0;exitDy=0;entryX=1;entryY=0.5;entryDx=0;entryDy=0;" edge="1" parent="1" source="O9FOWHWTUfD2SyWnDe9T-12" target="hzWPyJIUvlIUAcMJF-7f-11">
          <mxGeometry width="160" relative="1" as="geometry">
            <mxPoint x="447.5" y="2704" as="sourcePoint" />
            <mxPoint x="592.5" y="2808" as="targetPoint" />
          </mxGeometry>
        </mxCell>
        <mxCell id="hzWPyJIUvlIUAcMJF-7f-1" value="«interface»&lt;br&gt;IncomeAndExpenses&lt;br&gt;LIst()&lt;br&gt;Get()" style="html=1;whiteSpace=wrap;" vertex="1" parent="1">
          <mxGeometry x="560" y="2290" width="180" height="90" as="geometry" />
        </mxCell>
        <mxCell id="hzWPyJIUvlIUAcMJF-7f-3" value="" style="endArrow=none;html=1;rounded=0;entryX=0;entryY=0.5;entryDx=0;entryDy=0;exitX=1;exitY=0.5;exitDx=0;exitDy=0;" edge="1" parent="1" source="O9FOWHWTUfD2SyWnDe9T-5" target="hzWPyJIUvlIUAcMJF-7f-4">
          <mxGeometry width="50" height="50" relative="1" as="geometry">
            <mxPoint x="570" y="2570" as="sourcePoint" />
            <mxPoint x="680" y="2420" as="targetPoint" />
            <Array as="points">
              <mxPoint x="500" y="2340" />
              <mxPoint x="500" y="2440" />
              <mxPoint x="680" y="2440" />
            </Array>
          </mxGeometry>
        </mxCell>
        <mxCell id="hzWPyJIUvlIUAcMJF-7f-4" value="" style="triangle;whiteSpace=wrap;html=1;direction=north;" vertex="1" parent="1">
          <mxGeometry x="670" y="2384" width="20" height="20" as="geometry" />
        </mxCell>
        <mxCell id="hzWPyJIUvlIUAcMJF-7f-7" value="«interface»&lt;br&gt;detailIncomeAndExpenses&lt;br&gt;LIst()&lt;br&gt;" style="html=1;whiteSpace=wrap;" vertex="1" parent="1">
          <mxGeometry x="660" y="2500" width="180" height="90" as="geometry" />
        </mxCell>
        <mxCell id="hzWPyJIUvlIUAcMJF-7f-8" value="" style="endArrow=none;html=1;rounded=0;exitX=1;exitY=0.5;exitDx=0;exitDy=0;entryX=0;entryY=0.5;entryDx=0;entryDy=0;" edge="1" parent="1" target="hzWPyJIUvlIUAcMJF-7f-9">
          <mxGeometry width="50" height="50" relative="1" as="geometry">
            <mxPoint x="570" y="2590" as="sourcePoint" />
            <mxPoint x="750" y="2620" as="targetPoint" />
            <Array as="points">
              <mxPoint x="630" y="2590" />
              <mxPoint x="630" y="2690" />
              <mxPoint x="750" y="2690" />
            </Array>
          </mxGeometry>
        </mxCell>
        <mxCell id="hzWPyJIUvlIUAcMJF-7f-9" value="" style="triangle;whiteSpace=wrap;html=1;direction=north;" vertex="1" parent="1">
          <mxGeometry x="740" y="2590" width="20" height="20" as="geometry" />
        </mxCell>
        <mxCell id="hzWPyJIUvlIUAcMJF-7f-10" value="" style="endArrow=classic;html=1;rounded=0;entryX=1.006;entryY=0.356;entryDx=0;entryDy=0;entryPerimeter=0;" edge="1" parent="1" target="hzWPyJIUvlIUAcMJF-7f-1">
          <mxGeometry width="50" height="50" relative="1" as="geometry">
            <mxPoint x="770" y="2500" as="sourcePoint" />
            <mxPoint x="780" y="2330" as="targetPoint" />
            <Array as="points">
              <mxPoint x="770" y="2320" />
            </Array>
          </mxGeometry>
        </mxCell>
        <mxCell id="hzWPyJIUvlIUAcMJF-7f-11" value="«interface»&lt;br&gt;IncomeAndExpenses&lt;br&gt;LIst()&lt;br&gt;Get()" style="html=1;whiteSpace=wrap;" vertex="1" parent="1">
          <mxGeometry x="-90" y="2630" width="180" height="90" as="geometry" />
        </mxCell>
        <mxCell id="hzWPyJIUvlIUAcMJF-7f-13" value="" style="triangle;whiteSpace=wrap;html=1;direction=north;" vertex="1" parent="1">
          <mxGeometry y="2720" width="20" height="20" as="geometry" />
        </mxCell>
        <mxCell id="hzWPyJIUvlIUAcMJF-7f-14" value="" style="endArrow=none;html=1;rounded=0;exitX=0;exitY=0.5;exitDx=0;exitDy=0;entryX=0;entryY=0.5;entryDx=0;entryDy=0;" edge="1" parent="1" source="hzWPyJIUvlIUAcMJF-7f-13" target="O9FOWHWTUfD2SyWnDe9T-26">
          <mxGeometry width="50" height="50" relative="1" as="geometry">
            <mxPoint x="300" y="2710" as="sourcePoint" />
            <mxPoint x="350" y="2660" as="targetPoint" />
            <Array as="points">
              <mxPoint x="10" y="2838" />
            </Array>
          </mxGeometry>
        </mxCell>
        <mxCell id="hzWPyJIUvlIUAcMJF-7f-16" value="سیستم &lt;br&gt;باتوجه به درخواست &lt;br&gt;کاربر کد یکبار مصرف &lt;br&gt;را ارسال می کند" style="text;html=1;align=center;verticalAlign=middle;resizable=0;points=[];autosize=1;strokeColor=none;fillColor=none;" vertex="1" parent="1">
          <mxGeometry x="502.5" y="240" width="130" height="70" as="geometry" />
        </mxCell>
        <mxCell id="hzWPyJIUvlIUAcMJF-7f-17" value="سیستم ارسال کننده پیامک &lt;br&gt;باتوجه به کد دریافت شده کد را&lt;br&gt; برای کاربر ارسال میکند" style="text;html=1;align=center;verticalAlign=middle;resizable=0;points=[];autosize=1;strokeColor=none;fillColor=none;" vertex="1" parent="1">
          <mxGeometry x="640" y="120" width="180" height="60" as="geometry" />
        </mxCell>
        <mxCell id="hzWPyJIUvlIUAcMJF-7f-18" value="این یک سرویس خارجی برای پیداکردن &lt;br&gt;نیاز های کسب و کار ها می باشد" style="text;html=1;align=center;verticalAlign=middle;resizable=0;points=[];autosize=1;strokeColor=none;fillColor=none;" vertex="1" parent="1">
          <mxGeometry x="-240" y="918" width="210" height="40" as="geometry" />
        </mxCell>
        <mxCell id="hzWPyJIUvlIUAcMJF-7f-19" value="سیستم &lt;br&gt;باتوجه به درخواست &lt;br&gt;کاربر کد یکبار مصرف &lt;br&gt;را ارسال می کند" style="text;html=1;align=center;verticalAlign=middle;resizable=0;points=[];autosize=1;strokeColor=none;fillColor=none;" vertex="1" parent="1">
          <mxGeometry x="530" y="1030" width="130" height="70" as="geometry" />
        </mxCell>
        <mxCell id="hzWPyJIUvlIUAcMJF-7f-20" value="سیستم ارسال کننده پیامک &lt;br&gt;باتوجه به کد دریافت شده کد را&lt;br&gt; برای کاربر ارسال میکند" style="text;html=1;align=center;verticalAlign=middle;resizable=0;points=[];autosize=1;strokeColor=none;fillColor=none;" vertex="1" parent="1">
          <mxGeometry x="900" y="830" width="180" height="60" as="geometry" />
        </mxCell>
      </root>
    </mxGraphModel>
  </diagram>
</mxfile>
